<svg id="Layer_1" enable-background="new 0 0 512.143 512.143" height="512" viewBox="0 0 512.143 512.143" width="512" xmlns="http://www.w3.org/2000/svg" xmlns:xlink="http://www.w3.org/1999/xlink"><linearGradient id="SVGID_1_" gradientUnits="userSpaceOnUse" x1="256.071" x2="256.071" y1="0" y2="512.143"><stop offset="0" stop-color="#2af598"/><stop offset="1" stop-color="#009efd"/></linearGradient><path d="m512.143 288.646v-12.646c.001-24.107-3.063-49.721-9.364-78.307l-4.279-19.37-19.405 4.112c-.087.019-3.634.764-9.483 1.781 11.091-9.651 16.728-17.112 17.688-18.428l5.779-7.919-2.721-9.419c-14.196-49.15-10.532-87.849-2.572-95.808l-28.286-28.284c-7.959 7.959-46.656 11.623-95.808-2.572l-9.419-2.721-7.92 5.779c-1.316.96-8.777 6.598-18.429 17.688 1.018-5.849 1.763-9.392 1.78-9.476l4.131-19.418-19.388-4.274c-28.584-6.301-54.191-9.364-78.29-9.364-.005 0-.012 0-.016 0l-12.646.001-5.422 11.424c-.549 1.156-9.068 19.541-13.734 54.15-5.408-22.918-7.321-37.584-7.353-37.833l-2.983-23.795-22.872 7.208c-28.718 9.049-56.412 23.878-82.313 44.074l-9.34 7.283 1.896 11.69c.373 2.298 8.386 50.845 28.662 108.864-27.552-34.339-38.994-64.619-39.112-64.937l-11.061-30.236-22.203 23.314c-25.245 26.507-37.518 57.408-37.518 94.468 0 51.074 19.889 99.09 56.004 135.206 14.78 14.78 31.943 27.014 50.603 36.227l-106.749 106.749 28.285 28.285 347-347-28.285-28.284-209.92 209.92c-19.66-7.557-37.691-19.225-52.649-34.182-28.56-28.559-44.288-66.531-44.288-106.92 0-15.75 2.774-29.327 8.715-41.721 10.238 18.099 25.985 41.746 48.526 65.319 11.87 12.412 30.268 14.613 44.739 5.35 14.434-9.237 20.126-26.816 13.844-42.749-18.477-46.87-28.729-91.685-32.887-112.282 12.488-8.828 25.36-16.208 38.505-22.082 4.167 20.553 11.86 52.106 25.136 87.973 4.945 13.361 18.66 20.945 32.61 18.023 13.949-2.918 23.474-15.36 22.648-29.585-2.685-46.19 3.674-77.674 8.211-93.529 11.672.641 23.888 2.073 36.838 4.318-1.384 8.965-2.868 20.259-3.849 32.429-1.162 14.423 7.702 27.434 21.556 31.638 13.854 4.206 28.458-1.685 35.51-14.323 8.44-15.126 17.318-25.435 23.168-31.335 24.99 6.21 53.513 9.919 78.057 7.554-2.365 24.544 1.345 53.067 7.554 78.057-5.901 5.849-16.21 14.728-31.337 23.167-12.638 7.053-18.527 21.655-14.321 35.511 4.204 13.853 17.207 22.708 31.638 21.555 12.172-.981 23.464-2.465 32.43-3.848 2.245 12.95 3.676 25.163 4.317 36.838-15.854 4.536-47.337 10.895-93.53 8.21-14.233-.821-26.666 8.7-29.584 22.648-2.919 13.95 4.661 27.665 18.024 32.611 35.866 13.274 67.419 20.968 87.972 25.135-5.875 13.146-13.257 26.021-22.086 38.511-20.563-4.143-65.277-14.363-112.277-32.893-15.933-6.282-33.514-.589-42.751 13.844-9.262 14.473-7.062 32.87 5.351 44.739 23.573 22.541 47.221 38.288 65.319 48.526-12.395 5.94-25.972 8.715-41.722 8.715-39.37 0-76.641-15.04-104.945-42.349-.662-.64-11.905-12.649-16.256-18.49l-28.517 28.517c4.521 5.7 16.163 17.951 16.996 18.754.001.001.003.003.005.004 35.798 34.542 82.932 53.564 132.717 53.564 37.061 0 67.962-12.272 94.469-37.518l23.146-22.103-30.022-11.146c-.355-.132-30.641-11.575-64.981-39.128 58.019 20.276 106.566 28.289 108.864 28.662l11.69 1.896 7.283-9.34c20.195-25.9 35.024-53.595 44.073-82.313l7.18-22.838-23.751-3.016c-.259-.033-14.93-1.946-37.85-7.354 34.609-4.666 52.994-13.186 54.15-13.734z" fill="url(#SVGID_1_)"/></svg>