<?xml version="1.0" encoding="iso-8859-1"?>
<!-- Generator: Adobe Illustrator 19.0.0, SVG Export Plug-In . SVG Version: 6.00 Build 0)  -->
<svg version="1.1" id="Capa_1" xmlns="http://www.w3.org/2000/svg" xmlns:xlink="http://www.w3.org/1999/xlink" x="0px" y="0px"
	 viewBox="0 0 512 512" style="enable-background:new 0 0 512 512;" xml:space="preserve">
<g>
	<g>
		<path style="fill:#34CDFA;" d="M225.28,323.627l-86.613-58.24v-52.053H96v53.12L9.6,323.627c-5.96,3.925-9.563,10.57-9.6,17.707
			v85.333c0.037,7.136,3.64,13.782,9.6,17.707l97.067,64c7.169,4.783,16.511,4.783,23.68,0l94.933-64
			c5.879-3.974,9.397-10.611,9.387-17.707v-85.333C234.677,334.237,231.159,327.6,225.28,323.627z M192,415.36l-73.813,49.707
			l-75.52-49.92v-62.293l75.52-49.92L192,352.64V415.36z"/>
		<rect x="64" y="362.667" style="fill:#34CDFA;" width="42.667" height="42.667"/>
		<rect x="405.333" y="362.667" style="fill:#34CDFA;" width="42.667" height="42.667"/>
		<path style="fill:#34CDFA;" d="M502.613,323.627L416,265.387v-52.053h-42.667v53.12l-86.4,56.96
			c-6.023,3.967-9.635,10.708-9.6,17.92v85.333c0.037,7.136,3.64,13.782,9.6,17.707l96.853,64c7.169,4.783,16.511,4.783,23.68,0
			l95.147-64c5.879-3.974,9.397-10.611,9.387-17.707v-85.333C512.011,334.237,508.492,327.6,502.613,323.627z M469.333,415.36
			l-73.813,49.707L320,415.147v-62.293l75.52-49.92l73.813,49.707V415.36z"/>
	</g>
	
		<linearGradient id="SVGID_1_" gradientUnits="userSpaceOnUse" x1="-38.3971" y1="636.2484" x2="-31.2671" y2="643.3783" gradientTransform="matrix(21.3333 0 0 -21.3333 996.3334 13791.667)">
		<stop  offset="0" style="stop-color:#34CDFA"/>
		<stop  offset="1" style="stop-color:#E8D9F1"/>
	</linearGradient>
	<path style="fill:url(#SVGID_1_);" d="M363.947,67.627l-95.147-64c-7.169-4.783-16.511-4.783-23.68,0l-97.067,64
		c-5.879,3.974-9.397,10.611-9.387,17.707v85.333c0.037,7.136,3.64,13.782,9.6,17.707l86.4,57.173v53.12h42.667v-52.053
		l86.613-58.24c5.879-3.974,9.397-10.611,9.387-17.707V85.333C373.344,78.237,369.826,71.6,363.947,67.627z"/>
	<rect x="298.667" y="85.333" style="fill:#FFFFFF;" width="42.667" height="85.333"/>
</g>
<g>
</g>
<g>
</g>
<g>
</g>
<g>
</g>
<g>
</g>
<g>
</g>
<g>
</g>
<g>
</g>
<g>
</g>
<g>
</g>
<g>
</g>
<g>
</g>
<g>
</g>
<g>
</g>
<g>
</g>
</svg>
