<svg height="512" viewBox="0 0 64 64" width="512" xmlns="http://www.w3.org/2000/svg" xmlns:xlink="http://www.w3.org/1999/xlink"><linearGradient id="New_Gradient_Swatch_3" gradientUnits="userSpaceOnUse" x1="32" x2="32" y1="65.43" y2="-.504"><stop offset="0" stop-color="#006df0"/><stop offset="1" stop-color="#00e7f0"/></linearGradient><linearGradient id="New_Gradient_Swatch_3-6" x1="28.803" x2="28.803" xlink:href="#New_Gradient_Swatch_3" y1="65.43" y2="-.504"/><g id="Speed"><g fill="url(#New_Gradient_Swatch_3)"><path d="m44 62h-24a1 1 0 0 1 -1-1v-10a1 1 0 0 1 1-1h24a1 1 0 0 1 1 1v10a1 1 0 0 1 -1 1zm-23-2h22v-8h-22z"/><path d="m45.49 38.634a1 1 0 0 0 -1 1.732l3.452 1.993.007.007a1 1 0 0 0 1.366-.366 20 20 0 1 0 -34.615 0 1 1 0 0 0 1.367.361c.01 0 .015-.015.025-.022l3.423-1.976a1 1 0 1 0 -1-1.732l-2.562 1.479a17.892 17.892 0 0 1 -1.92-7.11h2.967a1 1 0 0 0 0-2h-2.949a17.838 17.838 0 0 1 1.9-7.11l2.557 1.476a1 1 0 1 0 1-1.732l-2.561-1.479a18.136 18.136 0 0 1 5.207-5.206l1.478 2.561a1 1 0 1 0 1.732-1l-1.474-2.557a17.838 17.838 0 0 1 7.11-1.9v2.947a1 1 0 0 0 2 0v-2.949a17.838 17.838 0 0 1 7.11 1.9l-1.476 2.559a1 1 0 1 0 1.732 1l1.478-2.561a18.136 18.136 0 0 1 5.207 5.206l-2.561 1.479a1 1 0 1 0 1 1.732l2.557-1.476a17.838 17.838 0 0 1 1.9 7.11h-2.947a1 1 0 0 0 0 2h2.967a18 18 0 0 1 -1.909 7.116z"/><path d="m32 2a30.005 30.005 0 0 0 -21.217 51.217 1 1 0 0 0 1.414 0l4.25-4.25a.515.515 0 0 0 .127-.19.985.985 0 0 0 -.126-1.223 22 22 0 1 1 31.1 0 .985.985 0 0 0 -.126 1.223.515.515 0 0 0 .127.19l4.25 4.25a1 1 0 0 0 1.414 0 30.005 30.005 0 0 0 -21.213-51.217zm20.493 49.078-2.837-2.836a24 24 0 1 0 -35.312 0l-2.837 2.836a28 28 0 1 1 48.493-19.078 27.8 27.8 0 0 1 -7.507 19.078z"/><path d="m44 46h-24a1 1 0 0 0 0 2h24a1 1 0 0 0 0-2z"/><path d="m33 30.268a2 2 0 1 0 -2 3.464 1.973 1.973 0 0 0 1 .268 2 2 0 0 0 1-3.732z"/></g><path d="m34.5 27.67c-2.024-1.17-11.665-2.512-12.757-2.661a1 1 0 0 0 -.926 1.6c.675.871 6.659 8.548 8.683 9.717a4.969 4.969 0 0 0 2.492.674 5.047 5.047 0 0 0 1.3-.172 5 5 0 0 0 1.208-9.158zm.1 5.83a3 3 0 0 1 -4.1 1.1c-1.031-.6-4.112-4.21-6.551-7.246 3.849.593 8.52 1.454 9.551 2.05a3 3 0 0 1 1.1 4.096z" fill="url(#New_Gradient_Swatch_3-6)"/></g></svg>